<svg preserveAspectRatio="none" width="100%" height="100%" overflow="visible" style="display: block;" viewBox="0 0 17 20" fill="none" xmlns="http://www.w3.org/2000/svg">
<g id="Group 661">
<path id="Vector (Stroke)" d="M15 2.99707C15 2.44655 14.5534 2 14.0029 2H2.99707C2.44655 2 2 2.44655 2 2.99707V17.0029C2 17.5534 2.44655 18 2.99707 18H14.0029C14.5534 18 15 17.5534 15 17.0029V2.99707ZM17 17.0029C17 18.658 15.658 20 14.0029 20H2.99707C1.34198 20 0 18.658 0 17.0029V2.99707C0 1.34198 1.34198 0 2.99707 0H14.0029C15.658 0 17 1.34198 17 2.99707V17.0029Z" fill="var(--fill-0, #2D2D2D)"/>
<path id="Vector (Stroke)_2" d="M15.002 6L15.1035 6.00488C15.6079 6.05593 16.002 6.48211 16.002 7C16.002 7.51789 15.6079 7.94407 15.1035 7.99512L15.002 8H1C0.447715 8 0 7.55228 0 7C0 6.44772 0.447715 6 1 6H15.002Z" fill="var(--fill-0, #2D2D2D)"/>
<path id="Vector (Stroke)_3" d="M4.99863 12V14H3.00156V12H4.99863Z" fill="var(--fill-0, #2D2D2D)"/>
<path id="Vector (Stroke)_4" d="M7.99863 12V14H6.00156V12H7.99863Z" fill="var(--fill-0, #2D2D2D)"/>
<path id="Vector (Stroke)_5" d="M10.9986 12V14H9.00156V12H10.9986Z" fill="var(--fill-0, #2D2D2D)"/>
<path id="Vector (Stroke)_6" d="M13.9986 12V14H12.0016V12H13.9986Z" fill="var(--fill-0, #2D2D2D)"/>
<path id="Vector (Stroke)_7" d="M4.99863 9V11H3.00156V9H4.99863Z" fill="var(--fill-0, #2D2D2D)"/>
<path id="Vector (Stroke)_8" d="M7.99863 9V11H6.00156V9H7.99863Z" fill="var(--fill-0, #2D2D2D)"/>
<path id="Vector (Stroke)_9" d="M10.9986 9V11H9.00156V9H10.9986Z" fill="var(--fill-0, #2D2D2D)"/>
<path id="Vector (Stroke)_10" d="M13.9986 9V11H12.0016V9H13.9986Z" fill="var(--fill-0, #2D2D2D)"/>
<path id="Vector (Stroke)_11" d="M4.99863 15V17H3.00156V15H4.99863Z" fill="var(--fill-0, #2D2D2D)"/>
<path id="Vector (Stroke)_12" d="M7.99863 15V17H6.00156V15H7.99863Z" fill="var(--fill-0, #2D2D2D)"/>
<path id="Vector (Stroke)_13" d="M10.9986 15V17H9.00156V15H10.9986Z" fill="var(--fill-0, #2D2D2D)"/>
<path id="Vector (Stroke)_14" d="M13.9986 15V17H12.0016V15H13.9986Z" fill="var(--fill-0, #2D2D2D)"/>
<path id="Vector (Stroke)_15" d="M13.998 3V5H13V3H13.998Z" fill="var(--fill-0, #2D2D2D)"/>
<path id="Vector (Stroke)_16" d="M12.0014 3V5H10.9984V3H12.0014Z" fill="var(--fill-0, #2D2D2D)"/>
<path id="Vector (Stroke)_17" d="M9.99961 3V5H9.00156V3H9.99961Z" fill="var(--fill-0, #2D2D2D)"/>
</g>
</svg>
