<svg preserveAspectRatio="none" width="100%" height="100%" overflow="visible" style="display: block;" viewBox="0 0 20 20" fill="none" xmlns="http://www.w3.org/2000/svg">
<g id="Wrap">
<mask id="path-1-outside-1_74_6018" maskUnits="userSpaceOnUse" x="0" y="0" width="20" height="20" fill="black">
<rect fill="white" width="20" height="20"/>
<path d="M2 10C2 5.58172 5.58172 2 10 2C14.4183 2 18 5.58172 18 10C18 14.4183 14.4183 18 10 18C5.58172 18 2 14.4183 2 10Z"/>
</mask>
<path d="M2 10C2 5.58172 5.58172 2 10 2C14.4183 2 18 5.58172 18 10C18 14.4183 14.4183 18 10 18C5.58172 18 2 14.4183 2 10Z" fill="var(--fill-0, white)"/>
<path d="M10 18V16C6.68629 16 4 13.3137 4 10H2H0C0 15.5228 4.47715 20 10 20V18ZM18 10H16C16 13.3137 13.3137 16 10 16V18V20C15.5228 20 20 15.5228 20 10H18ZM10 2V4C13.3137 4 16 6.68629 16 10H18H20C20 4.47715 15.5228 0 10 0V2ZM10 2V0C4.47715 0 0 4.47715 0 10H2H4C4 6.68629 6.68629 4 10 4V2Z" fill="var(--stroke-0, #627DD0)" mask="url(#path-1-outside-1_74_6018)"/>
<circle id="Ellipse 2" cx="10" cy="10" r="6" stroke="var(--stroke-0, #3658C1)" stroke-width="4"/>
</g>
</svg>
