<svg preserveAspectRatio="none" width="100%" height="100%" overflow="visible" style="display: block;" viewBox="0 0 20 20" fill="none" xmlns="http://www.w3.org/2000/svg">
<g id="Group 551">
<path id="Vector" d="M19 9V16H15.73C15.38 15.4 14.74 15 14 15C13.26 15 12.62 15.4 12.27 16H5.73C5.38 15.4 4.74 15 4 15C3.26 15 2.62 15.4 2.27 16H1V9H19Z" stroke="var(--stroke-0, #28408F)" stroke-width="2" stroke-linecap="round" stroke-linejoin="round"/>
<path id="Vector_2" d="M6 17C6 18.1 5.1 19 4 19C2.9 19 2 18.1 2 17C2 16.64 2.1 16.29 2.27 16C2.62 15.4 3.26 15 4 15C4.74 15 5.38 15.4 5.73 16C5.9 16.29 6 16.64 6 17Z" stroke="var(--stroke-0, #28408F)" stroke-width="2" stroke-miterlimit="10"/>
<path id="Vector_3" d="M16 17C16 18.1 15.1 19 14 19C12.9 19 12 18.1 12 17C12 16.64 12.1 16.29 12.27 16C12.62 15.4 13.26 15 14 15C14.74 15 15.38 15.4 15.73 16C15.9 16.29 16 16.64 16 17Z" stroke="var(--stroke-0, #28408F)" stroke-width="2" stroke-miterlimit="10"/>
<path id="Vector_4" d="M3 1H19V9H1V3C1 1.89 1.9 1 3 1Z" stroke="var(--stroke-0, #28408F)" stroke-width="2" stroke-linecap="round" stroke-linejoin="round"/>
<path id="Vector_5" d="M13 1V9" stroke="var(--stroke-0, #28408F)" stroke-width="2" stroke-linecap="round" stroke-linejoin="round"/>
<path id="Vector_6" d="M7 1V9" stroke="var(--stroke-0, #28408F)" stroke-width="2" stroke-linecap="round" stroke-linejoin="round"/>
<path id="Vector_7" d="M1 12H2.94" stroke="var(--stroke-0, #28408F)" stroke-width="2" stroke-linecap="round" stroke-linejoin="round"/>
</g>
</svg>
