<svg preserveAspectRatio="none" width="100%" height="100%" overflow="visible" style="display: block;" viewBox="0 0 18 20" fill="none" xmlns="http://www.w3.org/2000/svg">
<g id="Group 615">
<path id="Vector" d="M9.03108 19.0015H3.00177C1.89768 19.0015 1 18.1038 1 16.9997V3.00177C1 1.89768 1.89768 1 3.00177 1H13.049C14.1483 1 15.0412 1.88807 15.0508 2.98737V7.00051" stroke="var(--stroke-0, #28408F)" stroke-width="2" stroke-linecap="round" stroke-linejoin="round"/>
<path id="Vector_2" d="M5.03204 13.0008H8.03229" stroke="var(--stroke-0, #28408F)" stroke-width="2" stroke-linecap="round" stroke-linejoin="round"/>
<path id="Vector_3" d="M5.03204 9.00222H11.0325" stroke="var(--stroke-0, #28408F)" stroke-width="2" stroke-linecap="round" stroke-linejoin="round"/>
<path id="Vector_4" d="M5.03204 4.99854H11.0325" stroke="var(--stroke-0, #28408F)" stroke-width="2" stroke-linecap="round" stroke-linejoin="round"/>
<g id="Group">
<path id="Vector_5" d="M17.0335 12.5018C16.611 12.1994 15.723 11.657 14.5325 11.6666C14.038 11.6666 12.8187 11.681 12.3339 12.5018C12.0746 12.9435 12.0122 13.6443 12.3339 14.1676C13.1739 15.5405 15.891 14.4652 16.731 15.8333C17.0479 16.3518 16.9951 17.0574 16.731 17.4991C16.2654 18.2911 15.1133 18.3199 14.6093 18.3343C13.3948 18.3631 12.4683 17.8111 12.0362 17.4991" stroke="var(--stroke-0, #28408F)" stroke-width="2"/>
<path id="Vector_6" d="M14.5324 10.0007V11.6664" stroke="var(--stroke-0, #28408F)" stroke-width="2"/>
<path id="Vector_7" d="M14.5324 18.3343V20" stroke="var(--stroke-0, #28408F)" stroke-width="2"/>
</g>
</g>
</svg>
