<svg preserveAspectRatio="none" width="100%" height="100%" overflow="visible" style="display: block;" viewBox="0 0 10 10" fill="none" xmlns="http://www.w3.org/2000/svg">
<path id="Vector" d="M8.51948 1.47031C7.50092 0.451744 6.05743 -0.135649 4.47022 0.0268213C2.17689 0.258029 0.289737 2.12019 0.0335338 4.41352C-0.310153 7.44422 2.03317 10 4.98888 10C6.98226 10 8.69445 8.83146 9.4943 7.15052C9.69427 6.73185 9.39432 6.25068 8.93191 6.25068C8.7007 6.25068 8.48199 6.37566 8.38201 6.58187C7.67589 8.10035 5.98245 9.06267 4.13278 8.65025C2.74554 8.34405 1.62699 7.21301 1.3333 5.82576C0.808392 3.4012 2.65181 1.2516 4.98888 1.2516C6.02619 1.2516 6.95102 1.68277 7.6259 2.36389L6.68232 3.30747C6.28864 3.70115 6.56359 4.37603 7.11974 4.37603H9.36308C9.70677 4.37603 9.98797 4.09483 9.98797 3.75114V1.5078C9.98797 0.951652 9.31309 0.670454 8.91941 1.06413L8.51948 1.47031V1.47031Z" fill="var(--fill-0, black)"/>
</svg>
