<svg preserveAspectRatio="none" width="100%" height="100%" overflow="visible" style="display: block;" viewBox="0 0 17 6" fill="none" xmlns="http://www.w3.org/2000/svg">
<g id="Group 561">
<path id="Vector" d="M8.5 4.33333C9.42047 4.33333 10.1667 3.58714 10.1667 2.66667C10.1667 1.74619 9.42047 1 8.5 1C7.57953 1 6.83333 1.74619 6.83333 2.66667C6.83333 3.58714 7.57953 4.33333 8.5 4.33333Z" stroke="var(--stroke-0, #28408F)" stroke-width="2" stroke-linecap="round" stroke-linejoin="round"/>
<path id="Vector_2" d="M2.66667 4.33333C3.58714 4.33333 4.33333 3.58714 4.33333 2.66667C4.33333 1.74619 3.58714 1 2.66667 1C1.74619 1 1 1.74619 1 2.66667C1 3.58714 1.74619 4.33333 2.66667 4.33333Z" stroke="var(--stroke-0, #28408F)" stroke-width="2" stroke-linecap="round" stroke-linejoin="round"/>
<path id="Vector_3" d="M14.3333 4.33333C15.2538 4.33333 16 3.58714 16 2.66667C16 1.74619 15.2538 1 14.3333 1C13.4129 1 12.6667 1.74619 12.6667 2.66667C12.6667 3.58714 13.4129 4.33333 14.3333 4.33333Z" stroke="var(--stroke-0, #28408F)" stroke-width="2" stroke-linecap="round" stroke-linejoin="round"/>
</g>
</svg>
