<svg preserveAspectRatio="none" width="100%" height="100%" overflow="visible" style="display: block;" viewBox="0 0 12 12" fill="none" xmlns="http://www.w3.org/2000/svg">
<g id="Group 13900">
<path id="Vector" d="M5.835 11.085C8.7345 11.085 11.085 8.7345 11.085 5.835C11.085 2.93551 8.7345 0.585 5.835 0.585C2.93551 0.585 0.585 2.93551 0.585 5.835C0.585 8.7345 2.93551 11.085 5.835 11.085Z" stroke="var(--stroke-0, #252525)" stroke-width="1.17" stroke-linecap="round" stroke-linejoin="round"/>
<path id="Vector_2" d="M8.16738 8.16738H6.41738L5.25258 7.00258L5.83498 4.66738L7.58498 4.08498H9.33498L10.5026 3.50258" stroke="var(--stroke-0, #252525)" stroke-width="1.17" stroke-linecap="round" stroke-linejoin="round"/>
<path id="Vector_3" d="M6.4174 8.1674L4.6674 7.585L4.085 5.835L2.335 4.085L2.9174 6.4174" stroke="var(--stroke-0, #252525)" stroke-width="1.17" stroke-linecap="round" stroke-linejoin="round"/>
<path id="Vector_4" d="M8.1674 6.99984L7.5822 8.16744L9.3322 8.74984L9.825 9.24264" stroke="var(--stroke-0, #252525)" stroke-width="1.17" stroke-linecap="round" stroke-linejoin="round"/>
<path id="Vector_5" d="M2.33502 4.08498L1.16742 3.50258" stroke="var(--stroke-0, #252525)" stroke-width="1.17" stroke-linecap="round" stroke-linejoin="round"/>
<path id="Vector_6" d="M9.33498 5.2526L8.75258 4.085" stroke="var(--stroke-0, #252525)" stroke-width="1.17" stroke-linecap="round" stroke-linejoin="round"/>
</g>
</svg>
