<svg preserveAspectRatio="none" width="100%" height="100%" overflow="visible" style="display: block;" viewBox="0 0 12 12" fill="none" xmlns="http://www.w3.org/2000/svg">
<g id="Group 661">
<path id="Vector" d="M4.37667 11.085C4.85992 11.085 5.25167 10.6932 5.25167 10.21C5.25167 9.72675 4.85992 9.335 4.37667 9.335C3.89342 9.335 3.50167 9.72675 3.50167 10.21C3.50167 10.6932 3.89342 11.085 4.37667 11.085Z" stroke="var(--stroke-0, #252525)" stroke-width="1.17" stroke-linecap="round" stroke-linejoin="round"/>
<path id="Vector_2" d="M9.04333 11.085C9.52658 11.085 9.91833 10.6932 9.91833 10.21C9.91833 9.72675 9.52658 9.335 9.04333 9.335C8.56008 9.335 8.16833 9.72675 8.16833 10.21C8.16833 10.6932 8.56008 11.085 9.04333 11.085Z" stroke="var(--stroke-0, #252525)" stroke-width="1.17" stroke-linecap="round" stroke-linejoin="round"/>
<path id="Vector_3" d="M10.5367 7.00167H2.91833L2.335 1.75167H11.085L10.5367 7.00167Z" stroke="var(--stroke-0, #252525)" stroke-width="1.17" stroke-linecap="round" stroke-linejoin="round"/>
<path id="Vector_4" d="M0.585 0.585H1.75167L2.335 1.75167" stroke="var(--stroke-0, #252525)" stroke-width="1.17" stroke-linecap="round" stroke-linejoin="round"/>
</g>
</svg>
