<svg preserveAspectRatio="none" width="100%" height="100%" overflow="visible" style="display: block;" viewBox="0 0 20 20" fill="none" xmlns="http://www.w3.org/2000/svg">
<g id="Group 603">
<g id="Group">
<path id="Vector" d="M12.0064 1H7.99837C6.89555 1 6.00154 1.89401 6.00154 2.99683V7.00488C6.00154 8.10769 6.89555 9.0017 7.99837 9.0017H12.0064C13.1092 9.0017 14.0032 8.10769 14.0032 7.00488V2.99683C14.0032 1.89401 13.1092 1 12.0064 1Z" stroke="var(--stroke-0, #252525)" stroke-width="2" stroke-miterlimit="10" stroke-linecap="round"/>
<path id="Vector_2" d="M10.0001 1V4.42724" stroke="var(--stroke-0, #252525)" stroke-width="2" stroke-miterlimit="10"/>
</g>
<g id="Group_2">
<path id="Vector_3" d="M8.00308 9.00142H3.99503C2.89221 9.00142 1.9982 9.89543 1.9982 10.9982V15.0063C1.9982 16.1091 2.89221 17.0031 3.99503 17.0031H8.00308C9.10589 17.0031 9.9999 16.1091 9.9999 15.0063V10.9982C9.9999 9.89543 9.10589 9.00142 8.00308 9.00142Z" stroke="var(--stroke-0, #252525)" stroke-width="2" stroke-miterlimit="10" stroke-linecap="round"/>
<path id="Vector_4" d="M6.0017 9.00137V12.4286" stroke="var(--stroke-0, #252525)" stroke-width="2" stroke-miterlimit="10"/>
</g>
<g id="Group_3">
<path id="Vector_5" d="M16.0049 9.00142H11.9968C10.894 9.00142 10 9.89543 10 10.9982V15.0063C10 16.1091 10.894 17.0031 11.9968 17.0031H16.0049C17.1077 17.0031 18.0017 16.1091 18.0017 15.0063V10.9982C18.0017 9.89543 17.1077 9.00142 16.0049 9.00142Z" stroke="var(--stroke-0, #252525)" stroke-width="2" stroke-miterlimit="10" stroke-linecap="round"/>
<path id="Vector_6" d="M13.9985 9.00137V12.4286" stroke="var(--stroke-0, #252525)" stroke-width="2" stroke-miterlimit="10"/>
</g>
<path id="Vector_7" d="M1 16.9984H19.0002" stroke="var(--stroke-0, #252525)" stroke-width="2" stroke-miterlimit="10" stroke-linecap="round"/>
<path id="Vector_8" d="M3.00167 19V16.9984" stroke="var(--stroke-0, #252525)" stroke-width="2" stroke-miterlimit="10" stroke-linecap="round"/>
<path id="Vector_9" d="M16.9984 19V16.9984" stroke="var(--stroke-0, #252525)" stroke-width="2" stroke-miterlimit="10" stroke-linecap="round"/>
</g>
</svg>
