<svg preserveAspectRatio="none" width="100%" height="100%" overflow="visible" style="display: block;" viewBox="0 0 19 19" fill="none" xmlns="http://www.w3.org/2000/svg">
<g id="Group 580">
<path id="Vector" d="M8.55 4.75H10.45V6.65H8.55V4.75ZM8.55 8.55H10.45V14.25H8.55V8.55ZM9.5 0C4.256 0 0 4.256 0 9.5C0 14.744 4.256 19 9.5 19C14.744 19 19 14.744 19 9.5C19 4.256 14.744 0 9.5 0ZM9.5 17.1C5.3105 17.1 1.9 13.6895 1.9 9.5C1.9 5.3105 5.3105 1.9 9.5 1.9C13.6895 1.9 17.1 5.3105 17.1 9.5C17.1 13.6895 13.6895 17.1 9.5 17.1Z" fill="var(--fill-0, #3658C1)"/>
</g>
</svg>
