<svg preserveAspectRatio="none" width="100%" height="100%" overflow="visible" style="display: block;" viewBox="0 0 20 18" fill="none" xmlns="http://www.w3.org/2000/svg">
<g id="Group 596">
<g id="Group">
<path id="Vector" d="M10.0002 13.0031C12.21 13.0031 14.0013 11.2118 14.0013 9.00206C14.0013 6.79233 12.21 5.00099 10.0002 5.00099C7.7905 5.00099 5.99916 6.79233 5.99916 9.00206C5.99916 11.2118 7.7905 13.0031 10.0002 13.0031Z" stroke="var(--stroke-0, #252525)" stroke-width="2" stroke-linecap="round" stroke-linejoin="round"/>
<path id="Vector_2" d="M1.00026 7.0016C2.51145 3.37473 6.07116 1 10.0003 1C13.9294 1 17.4891 3.37473 19.0003 7.0016" stroke="var(--stroke-0, #252525)" stroke-width="2" stroke-linecap="round" stroke-linejoin="round"/>
<path id="Vector_3" d="M1.00026 11.0027C2.51145 14.6296 6.07116 17.0043 10.0003 17.0043C13.9294 17.0043 17.4891 14.6296 19.0003 11.0027" stroke="var(--stroke-0, #252525)" stroke-width="2" stroke-linecap="round" stroke-linejoin="round"/>
</g>
<path id="Vector_4" d="M7.99493 7.99955C8.54604 7.99955 8.9928 7.55279 8.9928 7.00168C8.9928 6.45058 8.54604 6.00382 7.99493 6.00382C7.44382 6.00382 6.99706 6.45058 6.99706 7.00168C6.99706 7.55279 7.44382 7.99955 7.99493 7.99955Z" stroke="var(--stroke-0, #252525)" stroke-width="2" stroke-miterlimit="10" stroke-linecap="round"/>
</g>
</svg>
