<svg preserveAspectRatio="none" width="100%" height="100%" overflow="visible" style="display: block;" viewBox="0 0 13 13" fill="none" xmlns="http://www.w3.org/2000/svg">
<g id="Info Icon">
<path id="Vector" d="M5.81221 3.229H7.10381V4.52061H5.81221V3.229ZM5.81221 5.81221H7.10381V9.68701H5.81221V5.81221ZM6.45801 0C2.89319 0 0 2.89319 0 6.45801C0 10.0228 2.89319 12.916 6.45801 12.916C10.0228 12.916 12.916 10.0228 12.916 6.45801C12.916 2.89319 10.0228 0 6.45801 0ZM6.45801 11.6244C3.61003 11.6244 1.2916 9.30599 1.2916 6.45801C1.2916 3.61003 3.61003 1.2916 6.45801 1.2916C9.30599 1.2916 11.6244 3.61003 11.6244 6.45801C11.6244 9.30599 9.30599 11.6244 6.45801 11.6244Z" fill="var(--fill-0, #3658C1)"/>
</g>
</svg>
