<svg preserveAspectRatio="none" width="100%" height="100%" overflow="visible" style="display: block;" viewBox="0 0 17 17" fill="none" xmlns="http://www.w3.org/2000/svg">
<g id="Group 611">
<path id="Vector" d="M13.5009 9.47434V13.6426C13.5009 14.5627 12.7569 15.3068 11.8368 15.3068H2.66412C1.74405 15.3068 1 14.5627 1 13.6426V4.47397C1 3.5539 1.74405 2.80985 2.66412 2.80985H6.83243" stroke="var(--stroke-0, #F1F4FF)" stroke-width="2" stroke-linecap="round" stroke-linejoin="round"/>
<g id="Group">
<path id="Vector_2" d="M14.2325 4.43109L11.8762 2.07483L7.16087 6.79017L9.51712 9.14642L14.2325 4.43109Z" stroke="var(--stroke-0, #F1F4FF)" stroke-width="2" stroke-linecap="round" stroke-linejoin="round"/>
<path id="Vector_3" d="M14.8202 1.48794L14.8231 1.49077C15.4736 2.14135 15.4736 3.19361 14.8231 3.84419L14.2319 4.43538L11.8756 2.07912L12.4668 1.48794C13.1174 0.837354 14.1696 0.837354 14.8202 1.48794Z" stroke="var(--stroke-0, #F1F4FF)" stroke-width="2" stroke-linecap="round" stroke-linejoin="round"/>
<path id="Vector_4" d="M8.34035 10.3265L5.39213 10.9145L5.98418 7.97031L7.16026 6.79022L9.52043 9.14639L8.34035 10.3265Z" stroke="var(--stroke-0, #F1F4FF)" stroke-width="2" stroke-linecap="round" stroke-linejoin="round"/>
</g>
</g>
</svg>
