<svg preserveAspectRatio="none" width="100%" height="100%" overflow="visible" style="display: block;" viewBox="0 0 10 12" fill="none" xmlns="http://www.w3.org/2000/svg">
<g id="Group 617">
<path id="Vector" d="M0.585 9.9174C0.585 10.5614 1.1058 11.085 1.747 11.085H7.5906C8.2318 11.085 8.7526 10.5614 8.7526 9.9174L8.7414 1.7442C8.7386 1.103 8.2178 0.585 7.5794 0.585H1.7498C1.1058 0.585 0.585 1.1058 0.585 1.7498V9.9174Z" stroke="var(--stroke-0, #252525)" stroke-width="1.17" stroke-linecap="round"/>
<path id="Vector_2" d="M5.835 2.92022L6.9746 2.91742" stroke="var(--stroke-0, #252525)" stroke-width="1.17" stroke-linecap="round" stroke-linejoin="round"/>
<path id="Vector_3" d="M5.835 5.835H6.9746" stroke="var(--stroke-0, #252525)" stroke-width="1.17" stroke-linecap="round" stroke-linejoin="round"/>
<path id="Vector_4" d="M5.835 8.75258H6.9746" stroke="var(--stroke-0, #252525)" stroke-width="1.17" stroke-linecap="round" stroke-linejoin="round"/>
<g id="Group">
<path id="Vector_5" d="M2.335 3.09382L2.7774 3.51102C3.0238 3.26462 3.735 2.56742 3.735 2.56742" stroke="var(--stroke-0, #252525)" stroke-width="1.17" stroke-linecap="round" stroke-linejoin="round"/>
<path id="Vector_6" d="M2.335 5.76777L2.7774 6.18497C3.0238 5.93857 3.735 5.24137 3.735 5.24137" stroke="var(--stroke-0, #252525)" stroke-width="1.17" stroke-linecap="round" stroke-linejoin="round"/>
<path id="Vector_7" d="M2.335 8.68548L2.7774 9.10268C3.0238 8.85628 3.735 8.15908 3.735 8.15908" stroke="var(--stroke-0, #252525)" stroke-width="1.17" stroke-linecap="round" stroke-linejoin="round"/>
</g>
</g>
</svg>
