<svg preserveAspectRatio="none" width="100%" height="100%" overflow="visible" style="display: block;" viewBox="0 0 17 15" fill="none" xmlns="http://www.w3.org/2000/svg">
<g id="Group 596">
<g id="Group">
<path id="Vector" d="M8.14857 10.5336C9.90367 10.5336 11.3265 9.11081 11.3265 7.35572C11.3265 5.60062 9.90367 4.17783 8.14857 4.17783C6.39347 4.17783 4.97069 5.60062 4.97069 7.35572C4.97069 9.11081 6.39347 10.5336 8.14857 10.5336Z" stroke="var(--stroke-0, #4F4F4F)" stroke-width="2" stroke-linecap="round" stroke-linejoin="round"/>
<path id="Vector_2" d="M1.00026 5.76683C2.20054 2.88616 5.02787 1 8.1486 1C11.2693 1 14.0967 2.88616 15.2969 5.76683" stroke="var(--stroke-0, #4F4F4F)" stroke-width="2" stroke-linecap="round" stroke-linejoin="round"/>
<path id="Vector_3" d="M1.00026 8.94476C2.20054 11.8254 5.02787 13.7116 8.1486 13.7116C11.2693 13.7116 14.0967 11.8254 15.2969 8.94476" stroke="var(--stroke-0, #4F4F4F)" stroke-width="2" stroke-linecap="round" stroke-linejoin="round"/>
</g>
<path id="Vector_4" d="M6.55585 6.55946C6.99357 6.55946 7.34842 6.20462 7.34842 5.7669C7.34842 5.32918 6.99357 4.97433 6.55585 4.97433C6.11813 4.97433 5.76328 5.32918 5.76328 5.7669C5.76328 6.20462 6.11813 6.55946 6.55585 6.55946Z" stroke="var(--stroke-0, #4F4F4F)" stroke-width="2" stroke-miterlimit="10" stroke-linecap="round"/>
</g>
</svg>
