<svg preserveAspectRatio="none" width="100%" height="100%" overflow="visible" style="display: block;" viewBox="0 0 17 17" fill="none" xmlns="http://www.w3.org/2000/svg">
<path id="Vector" d="M16 8.5C16 9.41667 15.25 10.1667 14.3333 10.1667H10.1667V14.3333C10.1667 15.25 9.41667 16 8.5 16C7.58333 16 6.83333 15.25 6.83333 14.3333V10.1667H2.66667C1.75 10.1667 1 9.41667 1 8.5C1 7.58333 1.75 6.83333 2.66667 6.83333H6.83333V2.66667C6.83333 1.75 7.58333 1 8.5 1C9.41667 1 10.1667 1.75 10.1667 2.66667V6.83333H14.3333C15.25 6.83333 16 7.58333 16 8.5Z" stroke="var(--stroke-0, #28408F)" stroke-width="2" stroke-linecap="round" stroke-linejoin="round"/>
</svg>
