<svg preserveAspectRatio="none" width="100%" height="100%" overflow="visible" style="display: block;" viewBox="0 0 20 6" fill="none" xmlns="http://www.w3.org/2000/svg">
<g id="Group 561">
<path id="Vector" d="M10 5C11.1046 5 12 4.10457 12 3C12 1.89543 11.1046 1 10 1C8.89543 1 8 1.89543 8 3C8 4.10457 8.89543 5 10 5Z" stroke="var(--stroke-0, #252525)" stroke-width="2" stroke-linecap="round" stroke-linejoin="round"/>
<path id="Vector_2" d="M3 5C4.10457 5 5 4.10457 5 3C5 1.89543 4.10457 1 3 1C1.89543 1 1 1.89543 1 3C1 4.10457 1.89543 5 3 5Z" stroke="var(--stroke-0, #252525)" stroke-width="2" stroke-linecap="round" stroke-linejoin="round"/>
<path id="Vector_3" d="M17 5C18.1046 5 19 4.10457 19 3C19 1.89543 18.1046 1 17 1C15.8954 1 15 1.89543 15 3C15 4.10457 15.8954 5 17 5Z" stroke="var(--stroke-0, #252525)" stroke-width="2" stroke-linecap="round" stroke-linejoin="round"/>
</g>
</svg>
