<svg preserveAspectRatio="none" width="100%" height="100%" overflow="visible" style="display: block;" viewBox="0 0 27 27" fill="none" xmlns="http://www.w3.org/2000/svg">
<g id="Group 274">
<path id="Vector" d="M11.4807 18.7853L22.3181 19.7152L22.1241 26.0627H6.16235V20.0184L11.4807 18.7853Z" stroke="var(--stroke-0, #252525)" stroke-width="1.5" stroke-linecap="round" stroke-linejoin="round"/>
<path id="Vector_2" d="M25.4351 20.8136C25.4418 20.6721 25.4284 20.5373 25.3882 20.4228C24.7661 18.5562 18.5379 19.1897 17.5278 19.3042" stroke="var(--stroke-0, #252525)" stroke-width="1.5" stroke-linecap="round" stroke-linejoin="round"/>
<path id="Vector_3" d="M11.4803 18.7853L8.93824 19.3783C12.4504 14.6682 22.9733 11.582 25.7697 14.8164C26.0038 15.0927 26.0974 15.4633 26.0506 15.8272L24.9267 24.8835C24.8465 25.5574 24.2711 26.0627 23.6022 26.0627H22.1237L22.3177 19.7152L11.4803 18.7853Z" stroke="var(--stroke-0, #252525)" stroke-width="1.5" stroke-linecap="round" stroke-linejoin="round"/>
<path id="Vector_4" d="M10.1491 25.9954V21.9254L11.4804 21.5818L15.4741 22.0871L18.13 22.4241V26.0628L10.1491 25.9954Z" stroke="var(--stroke-0, #252525)" stroke-width="1.5" stroke-linecap="round" stroke-linejoin="round"/>
<path id="Vector_5" d="M22.3179 19.284L22.4852 13.5362" stroke="var(--stroke-0, #252525)" stroke-width="1.5" stroke-linecap="round" stroke-linejoin="round"/>
<path id="Vector_6" d="M17.2937 14.2235L17.5279 19.2436" stroke="var(--stroke-0, #252525)" stroke-width="1.5" stroke-linecap="round" stroke-linejoin="round"/>
<path id="Vector_7" d="M12.3031 16.4539L12.5707 18.5765" stroke="var(--stroke-0, #252525)" stroke-width="1.5" stroke-linecap="round" stroke-linejoin="round"/>
<g id="Group">
<path id="Vector_8" d="M12.2426 6.84501L5.73347 3.17936L7.49957 2.35054C8.14847 2.04731 8.89772 2.01362 9.5667 2.26968L16.4237 4.8572" stroke="var(--stroke-0, #252525)" stroke-width="1.5" stroke-linecap="round" stroke-linejoin="round"/>
<path id="Vector_9" d="M13.6674 8.82608L10.7708 14.0618L12.9583 13.0308C13.353 12.8489 13.6942 12.5659 13.9484 12.2222L18.0292 6.77089" stroke="var(--stroke-0, #252525)" stroke-width="1.5" stroke-linecap="round" stroke-linejoin="round"/>
<path id="Vector_10" d="M15.0124 4.31813L21.3074 1.36L22.0634 1.00287C23.3946 0.376201 24.9734 0.955698 25.5889 2.29663L25.9434 3.05806L6.24211 12.3098C4.89747 12.9432 3.29862 12.357 2.67648 11.0026L0.863554 7.08085L0.95721 7.04042C1.86702 6.60917 2.94407 6.7372 3.73346 7.3706L5.49955 8.78565L10.4901 6.44071" stroke="var(--stroke-0, #252525)" stroke-width="1.5" stroke-linecap="round" stroke-linejoin="round"/>
</g>
<path id="Vector_11" d="M2.08795 26.0628H6.15532V20.0185L1.84043 20.8405C1.21159 20.9618 0.75 21.5144 0.75 22.1613V24.7151C0.75 25.4563 1.34539 26.0628 2.08795 26.0628Z" stroke="var(--stroke-0, #252525)" stroke-width="1.5" stroke-linecap="round" stroke-linejoin="round"/>
</g>
</svg>
