<svg preserveAspectRatio="none" width="100%" height="100%" overflow="visible" style="display: block;" viewBox="0 0 17 20" fill="none" xmlns="http://www.w3.org/2000/svg">
<g id="Group 661">
<path id="Vector" d="M14.0032 1H2.9968C1.894 1 1 1.894 1 2.9968V17.0032C1 18.106 1.894 19 2.9968 19H14.0032C15.106 19 16 18.106 16 17.0032V2.9968C16 1.894 15.106 1 14.0032 1Z" stroke="var(--stroke-0, #28408F)" stroke-width="2" stroke-linecap="round" stroke-linejoin="round"/>
<path id="Vector_2" d="M1 7H15.0016" stroke="var(--stroke-0, #28408F)" stroke-width="2" stroke-linecap="round" stroke-linejoin="round"/>
<path id="Vector_3" d="M4.99836 13H3.00156" stroke="var(--stroke-0, #28408F)" stroke-width="2" stroke-linejoin="round"/>
<path id="Vector_4" d="M7.99836 13H6.00156" stroke="var(--stroke-0, #28408F)" stroke-width="2" stroke-linejoin="round"/>
<path id="Vector_5" d="M10.9984 13H9.00156" stroke="var(--stroke-0, #28408F)" stroke-width="2" stroke-linejoin="round"/>
<path id="Vector_6" d="M13.9984 13H12.0016" stroke="var(--stroke-0, #28408F)" stroke-width="2" stroke-linejoin="round"/>
<path id="Vector_7" d="M4.99836 10H3.00156" stroke="var(--stroke-0, #28408F)" stroke-width="2" stroke-linejoin="round"/>
<path id="Vector_8" d="M7.99836 10H6.00156" stroke="var(--stroke-0, #28408F)" stroke-width="2" stroke-linejoin="round"/>
<path id="Vector_9" d="M10.9984 10H9.00156" stroke="var(--stroke-0, #28408F)" stroke-width="2" stroke-linejoin="round"/>
<path id="Vector_10" d="M13.9984 10H12.0016" stroke="var(--stroke-0, #28408F)" stroke-width="2" stroke-linejoin="round"/>
<path id="Vector_11" d="M4.99836 16H3.00156" stroke="var(--stroke-0, #28408F)" stroke-width="2" stroke-linejoin="round"/>
<path id="Vector_12" d="M7.99836 16H6.00156" stroke="var(--stroke-0, #28408F)" stroke-width="2" stroke-linejoin="round"/>
<path id="Vector_13" d="M10.9984 16H9.00156" stroke="var(--stroke-0, #28408F)" stroke-width="2" stroke-linejoin="round"/>
<path id="Vector_14" d="M13.9984 16H12.0016" stroke="var(--stroke-0, #28408F)" stroke-width="2" stroke-linejoin="round"/>
<path id="Vector_15" d="M13.9984 4H13" stroke="var(--stroke-0, #28408F)" stroke-width="2" stroke-linejoin="round"/>
<path id="Vector_16" d="M12.0016 4H10.9984" stroke="var(--stroke-0, #28408F)" stroke-width="2" stroke-linejoin="round"/>
<path id="Vector_17" d="M9.99996 4H9.00156" stroke="var(--stroke-0, #28408F)" stroke-width="2" stroke-linejoin="round"/>
</g>
</svg>
