<svg preserveAspectRatio="none" width="100%" height="100%" overflow="visible" style="display: block;" viewBox="0 0 20 18" fill="none" xmlns="http://www.w3.org/2000/svg">
<g id="Group 13880">
<path id="Vector" d="M4.00478 16H2.00318V16.9984H4.00478V16Z" stroke="var(--stroke-0, #28408F)" stroke-width="2" stroke-linecap="round" stroke-linejoin="round"/>
<path id="Vector_2" d="M12.0016 16H10V16.9984H12.0016V16Z" stroke="var(--stroke-0, #28408F)" stroke-width="2" stroke-linecap="round" stroke-linejoin="round"/>
<path id="Vector_3" d="M3.50078 13.5044H4.50398" stroke="var(--stroke-0, #28408F)" stroke-width="2" stroke-linecap="round" stroke-linejoin="round"/>
<path id="Vector_4" d="M9.50078 13.5044H10.504" stroke="var(--stroke-0, #28408F)" stroke-width="2" stroke-linecap="round" stroke-linejoin="round"/>
<path id="Vector_5" d="M1 11.0031H13" stroke="var(--stroke-0, #28408F)" stroke-width="2" stroke-linecap="round" stroke-linejoin="round"/>
<g id="Group">
<path id="Vector_6" d="M18.0016 10H16V10.9984H18.0016V10Z" stroke="var(--stroke-0, #28408F)" stroke-width="2" stroke-linecap="round" stroke-linejoin="round"/>
<path id="Vector_7" d="M15.5008 7.50437H16.4992" stroke="var(--stroke-0, #28408F)" stroke-width="2" stroke-linecap="round" stroke-linejoin="round"/>
<path id="Vector_8" d="M13 11.2288V15.04C13 15.5728 12.5728 16 12.04 16H1.96C1.432 16 1 15.5728 1 15.04V11.2288C1 11.08 1.0384 10.9312 1.1008 10.7968L2.7376 7.5328C2.9008 7.2064 3.232 7 3.5968 7H10.408C10.7728 7 11.104 7.2064 11.2672 7.5328L12.5008 10L12.8992 10.7968C12.9664 10.9312 13 11.08 13 11.2288Z" stroke="var(--stroke-0, #28408F)" stroke-width="2" stroke-linecap="round" stroke-linejoin="round"/>
<path id="Vector_9" d="M19 5.2288V9.04C19 9.5728 18.5728 10 18.04 10H12.5008L11.2672 7.5328C11.104 7.2064 10.7728 7 10.408 7H7V5.2288C7 5.152 7.0096 5.0752 7.0288 5.0032C7.0432 4.9312 7.072 4.864 7.1008 4.7968L8.7376 1.5328C8.9008 1.2064 9.232 1 9.5968 1H16.408C16.7728 1 17.104 1.2064 17.2672 1.5328L18.8992 4.7968C18.9328 4.864 18.9568 4.9312 18.976 5.0032C18.9904 5.0752 19 5.152 19 5.2288Z" stroke="var(--stroke-0, #28408F)" stroke-width="2" stroke-linecap="round" stroke-linejoin="round"/>
<path id="Vector_10" d="M7 5.00312H19" stroke="var(--stroke-0, #28408F)" stroke-width="2" stroke-linecap="round" stroke-linejoin="round"/>
</g>
</g>
</svg>
