<svg preserveAspectRatio="none" width="100%" height="100%" overflow="visible" style="display: block;" viewBox="0 0 95 60" fill="none" xmlns="http://www.w3.org/2000/svg">
<g id="Group 595">
<g id="Group 594">
<path id="Vector" d="M46.9048 10.7149V0C34.6519 0.259593 23.5405 5.17396 15.2471 13.0423L22.8003 20.6242C29.1586 14.6894 37.6037 10.9745 46.9137 10.7149H46.9048Z" fill="var(--fill-0, #DC8921)"/>
<path id="Vector_2" d="M72.8975 21.2135L80.3395 13.3671C72.0418 5.30108 60.9278 0.274667 48.6729 0V10.9592C58.0401 11.2247 66.5249 15.0701 72.8975 21.2135Z" fill="var(--fill-0, #E1D63D)"/>
<path id="Vector_3" d="M81.4406 14.7314L73.8887 22.4091C79.9772 28.7445 83.8254 37.2096 84.1868 46.5517H94.9998C94.6384 34.194 89.5346 23.0176 81.4406 14.7314Z" fill="var(--fill-0, #039B59)"/>
<path id="Vector_4" d="M21.1111 22.2953L13.5111 14.7314C5.44397 23.0106 0.359338 34.1955 0 46.5517H10.7532C11.1125 37.146 14.9844 28.6433 21.1111 22.2953Z" fill="var(--fill-0, #C62E1F)"/>
</g>
<path id="Vector_5" d="M67.2921 33.5525L73.024 36.156L70.4447 41.9309L67.2921 33.5525Z" fill="var(--fill-0, #4F4F4F)"/>
<g id="Group">
<path id="Vector_6" d="M56.2036 28.5059H35.6007L29.0278 37.8933L45.9022 59.0002L62.7765 37.8933L56.2036 28.5059Z" stroke="var(--stroke-0, #039B59)" stroke-width="2" stroke-linecap="round" stroke-linejoin="round"/>
<path id="Vector_7" d="M29.0278 37.8921H62.7765" stroke="var(--stroke-0, #039B59)" stroke-width="2" stroke-linecap="round" stroke-linejoin="round"/>
<path id="Vector_8" d="M35.6002 28.5059L40.7583 37.8933" stroke="var(--stroke-0, #039B59)" stroke-width="2" stroke-linecap="round" stroke-linejoin="round"/>
<path id="Vector_9" d="M45.9016 28.5059L40.7582 37.8933" stroke="var(--stroke-0, #039B59)" stroke-width="2" stroke-linecap="round" stroke-linejoin="round"/>
<path id="Vector_10" d="M51.0455 37.8933L45.9021 28.5059" stroke="var(--stroke-0, #039B59)" stroke-width="2" stroke-linecap="round" stroke-linejoin="round"/>
<path id="Vector_11" d="M56.2027 28.5059L51.0446 37.8933" stroke="var(--stroke-0, #039B59)" stroke-width="2" stroke-linecap="round" stroke-linejoin="round"/>
<path id="Vector_12" d="M40.7582 37.8921L45.9016 58.9991" stroke="var(--stroke-0, #039B59)" stroke-width="2" stroke-linecap="round" stroke-linejoin="round"/>
<path id="Vector_13" d="M45.9021 58.9991L51.0455 37.8921" stroke="var(--stroke-0, #039B59)" stroke-width="2" stroke-linecap="round" stroke-linejoin="round"/>
</g>
</g>
</svg>
