<svg preserveAspectRatio="none" width="100%" height="100%" overflow="visible" style="display: block;" viewBox="0 0 27 24" fill="none" xmlns="http://www.w3.org/2000/svg">
<g id="Group 268">
<path id="Vector" d="M1.41612 11.6789H2.58182C3.31455 11.6789 3.91406 12.2772 3.91406 13.0084V13.9989C3.91406 14.7302 3.31455 15.3285 2.58182 15.3285H0.75V12.3436C0.75 11.978 1.04975 11.6789 1.41612 11.6789Z" stroke="var(--stroke-0, #252525)" stroke-width="1.5" stroke-miterlimit="10"/>
<path id="Vector_2" d="M26.0624 2.09284V18.998C26.0624 19.7292 25.4696 20.3209 24.7302 20.3209H21.3264C21.3264 19.0113 20.2606 17.9543 18.9483 17.9543C17.6361 17.9543 16.5769 19.0113 16.5769 20.3209H8.65681C8.65681 19.0113 7.59768 17.9543 6.28543 17.9543C4.97318 17.9543 3.91406 19.0113 3.91406 20.3209H2.07557C1.34284 20.3209 0.75 19.7292 0.75 18.998V11.4395C0.75 11.0473 0.836595 10.6618 1.00312 10.3094L5.08642 2.2125C5.53938 1.31506 6.45862 0.75 7.4578 0.75H24.7169C25.4629 0.75 26.0624 1.35494 26.0624 2.09284Z" stroke="var(--stroke-0, #252525)" stroke-width="1.5" stroke-miterlimit="10"/>
<path id="Vector_3" d="M6.28544 22.6875C7.59511 22.6875 8.65682 21.628 8.65682 20.3209C8.65682 19.0139 7.59511 17.9543 6.28544 17.9543C4.97576 17.9543 3.91406 19.0139 3.91406 20.3209C3.91406 21.628 4.97576 22.6875 6.28544 22.6875Z" stroke="var(--stroke-0, #252525)" stroke-width="1.5" stroke-miterlimit="10"/>
<path id="Vector_4" d="M21.3263 20.3209C21.3263 21.6305 20.2605 22.6875 18.9483 22.6875C17.636 22.6875 16.5769 21.6305 16.5769 20.3209C16.5769 19.0113 17.6427 17.9543 18.9483 17.9543C20.2539 17.9543 21.3263 19.0113 21.3263 20.3209Z" stroke="var(--stroke-0, #252525)" stroke-width="1.5" stroke-miterlimit="10"/>
<path id="Vector_5" d="M26.0626 11.6789H1.44955" stroke="var(--stroke-0, #252525)" stroke-width="1.5" stroke-miterlimit="10"/>
<path id="Vector_6" d="M26.0619 4.04726H4.16002" stroke="var(--stroke-0, #252525)" stroke-width="1.5" stroke-miterlimit="10"/>
<path id="Vector_7" d="M8.41667 4.04726V11.6788" stroke="var(--stroke-0, #252525)" stroke-width="1.5" stroke-miterlimit="10"/>
<path id="Vector_8" d="M14.2455 4.04726V11.6788" stroke="var(--stroke-0, #252525)" stroke-width="1.5" stroke-miterlimit="10"/>
<path id="Vector_9" d="M20.0739 4.04726V11.6788" stroke="var(--stroke-0, #252525)" stroke-width="1.5" stroke-miterlimit="10"/>
</g>
</svg>
