<svg preserveAspectRatio="none" width="100%" height="100%" overflow="visible" style="display: block;" viewBox="0 0 20 20" fill="none" xmlns="http://www.w3.org/2000/svg">
<g id="Group 553">
<path id="Vector" d="M8 9H1V12V16H2.27" stroke="var(--stroke-0, #28408F)" stroke-width="2" stroke-linecap="round" stroke-linejoin="round"/>
<path id="Vector_2" d="M7.99998 16H5.72998" stroke="var(--stroke-0, #28408F)" stroke-width="2" stroke-linecap="round" stroke-linejoin="round"/>
<path id="Vector_3" d="M19 1H8V11H19V1Z" stroke="var(--stroke-0, #28408F)" stroke-width="2" stroke-linecap="round" stroke-linejoin="round"/>
<path id="Vector_4" d="M12.27 16H8" stroke="var(--stroke-0, #28408F)" stroke-width="2" stroke-linecap="round" stroke-linejoin="round"/>
<path id="Vector_5" d="M15.73 16H19V11H8V9" stroke="var(--stroke-0, #28408F)" stroke-width="2" stroke-linecap="round" stroke-linejoin="round"/>
<path id="Vector_6" d="M6 17C6 18.1 5.1 19 4 19C2.9 19 2 18.1 2 17C2 16.64 2.1 16.29 2.27 16C2.62 15.4 3.26 15 4 15C4.74 15 5.38 15.4 5.73 16C5.9 16.29 6 16.64 6 17Z" stroke="var(--stroke-0, #28408F)" stroke-width="2" stroke-miterlimit="10"/>
<path id="Vector_7" d="M16 17C16 18.1 15.1 19 14 19C12.9 19 12 18.1 12 17C12 16.64 12.1 16.29 12.27 16C12.62 15.4 13.26 15 14 15C14.74 15 15.38 15.4 15.73 16C15.9 16.29 16 16.64 16 17Z" stroke="var(--stroke-0, #28408F)" stroke-width="2" stroke-miterlimit="10"/>
<path id="Vector_8" d="M3 3H8V9H1V5C1 3.89 1.9 3 3 3Z" stroke="var(--stroke-0, #28408F)" stroke-width="2" stroke-linecap="round" stroke-linejoin="round"/>
<path id="Vector_9" d="M1 12H2.94" stroke="var(--stroke-0, #28408F)" stroke-width="2" stroke-linecap="round" stroke-linejoin="round"/>
</g>
</svg>
