<svg preserveAspectRatio="none" width="100%" height="100%" overflow="visible" style="display: block;" viewBox="0 0 144 71" fill="none" xmlns="http://www.w3.org/2000/svg">
<g id="Group 612">
<path id="Vector" d="M71.0978 16.1632V0C52.525 0.391589 35.6824 7.80479 23.1113 19.674L34.5605 31.1111C44.1983 22.1586 56.9992 16.5548 71.1113 16.1632H71.0978Z" fill="var(--fill-0, #DC8921)"/>
<path id="Vector_2" d="M94.456 21.2099L103.686 7.36484C94.615 2.85855 84.4834 0.238795 73.7773 0V16.5317C81.1129 16.7386 88.0915 18.3869 94.456 21.2099Z" fill="var(--fill-0, #E1D63D)"/>
<path id="Vector_3" d="M96.1528 22.2598C102.107 24.9009 107.525 28.5704 112.194 33.0498L123.474 21.2138C118.146 16.059 112.051 11.7272 105.383 8.41467L96.1528 22.2598Z" fill="var(--fill-0, #039B59)"/>
<path id="Vector_4" d="M135.963 39.4147L121.946 47.9147C125.298 54.6988 127.3 62.2488 127.61 70.2222H144C143.674 59.1432 140.81 48.6936 135.963 39.4147Z" fill="var(--fill-0, #0EA5E9)"/>
<path id="Vector_5" d="M133.497 35.6028C130.047 29.3452 128.243 25.8722 123.153 20.9147L109.413 30.5319C113.513 34.5903 116.986 39.2686 119.674 44.4157L133.497 35.6028Z" fill="var(--fill-0, #039B59)"/>
<path id="Vector_6" d="M32 33.6321L20.48 22.2222C8.25192 34.7111 0.544681 51.5832 0 70.2222H16.2996C16.8442 56.0339 22.7132 43.2078 32 33.6321Z" fill="var(--fill-0, #C62E1F)"/>
</g>
</svg>
