<svg preserveAspectRatio="none" width="100%" height="100%" overflow="visible" style="display: block;" viewBox="0 0 15 14" fill="none" xmlns="http://www.w3.org/2000/svg">
<path id="Vector" d="M13.5058 4.56458L9.47246 4.21458L7.89746 0.50625C7.61413 -0.16875 6.64746 -0.16875 6.36413 0.50625L4.78913 4.22292L0.764131 4.56458C0.0307979 4.62292 -0.269202 5.53958 0.289131 6.02292L3.34746 8.67292L2.4308 12.6063C2.26413 13.3229 3.03913 13.8896 3.67246 13.5063L7.1308 11.4229L10.5891 13.5146C11.2225 13.8979 11.9975 13.3313 11.8308 12.6146L10.9141 8.67292L13.9725 6.02292C14.5308 5.53958 14.2391 4.62292 13.5058 4.56458V4.56458ZM7.1308 9.86458L3.99746 11.7563L4.8308 8.18958L2.06413 5.78958L5.71413 5.47292L7.1308 2.11458L8.5558 5.48125L12.2058 5.79792L9.43913 8.19792L10.2725 11.7646L7.1308 9.86458Z" fill="var(--fill-0, #6B6C6E)"/>
</svg>
