<svg preserveAspectRatio="none" width="100%" height="100%" overflow="visible" style="display: block;" viewBox="0 0 12 12" fill="none" xmlns="http://www.w3.org/2000/svg">
<path id="Vector" d="M10.8333 6.66667H6.66667V10.8333C6.66667 11.2917 6.29167 11.6667 5.83333 11.6667C5.375 11.6667 5 11.2917 5 10.8333V6.66667H0.833333C0.375 6.66667 0 6.29167 0 5.83333C0 5.375 0.375 5 0.833333 5H5V0.833333C5 0.375 5.375 0 5.83333 0C6.29167 0 6.66667 0.375 6.66667 0.833333V5H10.8333C11.2917 5 11.6667 5.375 11.6667 5.83333C11.6667 6.29167 11.2917 6.66667 10.8333 6.66667Z" fill="var(--fill-0, #6B6C6E)"/>
</svg>
