<svg preserveAspectRatio="none" width="100%" height="100%" overflow="visible" style="display: block;" viewBox="0 0 29 25" fill="none" xmlns="http://www.w3.org/2000/svg">
<g id="Group 270">
<path id="Vector" d="M9.70034 8.32013V21.1029H7.93891C7.93891 19.741 6.80043 18.6418 5.38985 18.6418C3.97928 18.6418 2.8408 19.741 2.8408 21.1029H2.18921C1.39442 21.1029 0.75 20.4807 0.75 19.7133V14.238C0.75 13.9822 0.821603 13.7264 0.964808 13.5121L4.70247 7.59422C4.9674 7.17942 5.43282 6.93054 5.93403 6.93054H8.26112C9.05591 6.93054 9.70034 7.55274 9.70034 8.32013Z" stroke="var(--stroke-0, #252525)" stroke-width="1.5" stroke-miterlimit="10"/>
<path id="Vector_2" d="M26.5055 0.75H14.7126C13.9178 0.75 13.2805 1.3722 13.2805 2.13267V16.4088H27.9376V2.13959C27.9376 1.3722 27.2932 0.756913 26.5055 0.756913V0.75Z" stroke="var(--stroke-0, #252525)" stroke-width="1.5" stroke-miterlimit="10"/>
<path id="Vector_3" d="M27.9372 16.4641V19.7134C27.9372 20.4808 27.2927 21.103 26.4979 21.103H22.8462C22.8462 19.741 21.7006 18.6418 20.29 18.6418C18.8794 18.6418 17.7409 19.741 17.7409 21.103H9.75723C9.72143 21.103 9.69995 21.0822 9.69995 21.0546V16.4641C9.69995 16.4641 9.72143 16.4157 9.75723 16.4157H27.887C27.887 16.4157 27.9372 16.4365 27.9372 16.4641Z" stroke="var(--stroke-0, #252525)" stroke-width="1.5" stroke-miterlimit="10"/>
<path id="Vector_4" d="M9.70034 14.5422H0.75" stroke="var(--stroke-0, #252525)" stroke-width="1.5" stroke-miterlimit="10"/>
<path id="Vector_5" d="M5.38989 23.5641C6.7977 23.5641 7.93895 22.4622 7.93895 21.1029C7.93895 19.7437 6.7977 18.6418 5.38989 18.6418C3.98209 18.6418 2.84084 19.7437 2.84084 21.1029C2.84084 22.4622 3.98209 23.5641 5.38989 23.5641Z" stroke="var(--stroke-0, #252525)" stroke-width="1.5" stroke-miterlimit="10"/>
<path id="Vector_6" d="M22.8467 21.1029C22.8467 22.4649 21.701 23.5641 20.2904 23.5641C18.8799 23.5641 17.7414 22.4649 17.7414 21.1029C17.7414 19.741 18.887 18.6418 20.2904 18.6418C21.6939 18.6418 22.8467 19.741 22.8467 21.1029Z" stroke="var(--stroke-0, #252525)" stroke-width="1.5" stroke-miterlimit="10"/>
</g>
</svg>
