<svg preserveAspectRatio="none" width="100%" height="100%" overflow="visible" style="display: block;" viewBox="0 0 20 19" fill="none" xmlns="http://www.w3.org/2000/svg">
<g id="Group 556">
<g id="Group">
<path id="Vector" d="M11.9801 10.8402L11.7701 12.1302L11.6401 12.9202H1.51011C1.44011 11.6902 1.36011 10.4402 1.29011 9.4002C1.27011 9.1602 1.26011 8.9202 1.25011 8.7102C1.13011 7.1402 1.48011 6.3202 1.84011 5.8802C3.18011 4.2102 6.78011 4.9002 9.31011 6.5802C10.7401 7.5302 11.8301 8.7902 11.9801 10.1302C12.0201 10.4302 12.0001 10.6902 11.9801 10.8402Z" stroke="var(--stroke-0, #28408F)" stroke-width="2" stroke-miterlimit="10"/>
<path id="Vector_2" d="M1.25011 9.4202C2.08011 9.0702 3.31011 8.6902 4.79011 8.7102C8.79011 8.7702 11.3701 11.6602 11.8701 12.2502" stroke="var(--stroke-0, #28408F)" stroke-width="1.5" stroke-linecap="round" stroke-linejoin="round"/>
<path id="Vector_3" d="M7.00011 12.9202V5.9202" stroke="var(--stroke-0, #28408F)" stroke-width="1.5" stroke-linecap="round" stroke-linejoin="round"/>
<path id="Vector_4" d="M9.75011 17.9202V15.8002" stroke="var(--stroke-0, #28408F)" stroke-width="2" stroke-miterlimit="10"/>
<path id="Vector_5" d="M13.7501 17.9202V15.8002" stroke="var(--stroke-0, #28408F)" stroke-width="2" stroke-miterlimit="10"/>
<path id="Vector_6" d="M5.75011 17.9202V15.8002" stroke="var(--stroke-0, #28408F)" stroke-width="2" stroke-miterlimit="10"/>
</g>
<g id="Group_2">
<path id="Vector_7" d="M8.7998 0.880203L17.9498 4.2202L18.9498 2.9602" stroke="var(--stroke-0, #28408F)" stroke-width="1.5" stroke-linecap="round" stroke-linejoin="round"/>
<path id="Vector_8" d="M15.6298 0.750203L11.7498 2.0402L14.3298 5.9202" stroke="var(--stroke-0, #28408F)" stroke-width="1.5" stroke-linecap="round" stroke-linejoin="round"/>
</g>
<path id="Vector_9" d="M17 12.9202H3C1.89543 12.9202 1 13.8156 1 14.9202V15.9202C1 17.0248 1.89543 17.9202 3 17.9202H17C18.1046 17.9202 19 17.0248 19 15.9202V14.9202C19 13.8156 18.1046 12.9202 17 12.9202Z" stroke="var(--stroke-0, #28408F)" stroke-width="2" stroke-linecap="round" stroke-linejoin="round"/>
</g>
</svg>
