<svg preserveAspectRatio="none" width="100%" height="100%" overflow="visible" style="display: block;" viewBox="0 0 11 11" fill="none" xmlns="http://www.w3.org/2000/svg">
<path id="Vector" d="M9.61578 5.23891H8.9035V2.0965H5.76109V1.38422C5.76109 0.698127 5.26878 0.0748824 4.58792 0.00679684C3.80232 -0.0717635 3.14241 0.541007 3.14241 1.3109V2.0965H0.00523735V5.13417H0.733229C1.41932 5.13417 2.04257 5.59505 2.1735 6.26543C2.34633 7.16626 1.66024 7.96234 0.785603 7.96234H0V11H3.03766V10.2668C3.03766 9.58068 3.49855 8.95743 4.16893 8.8265C5.06976 8.65367 5.86584 9.33976 5.86584 10.2144V11H8.9035V7.85759H9.6891C10.459 7.85759 11.0718 7.19768 10.9932 6.41208C10.9251 5.73122 10.2966 5.23891 9.61578 5.23891V5.23891Z" fill="var(--fill-0, black)"/>
</svg>
