<svg preserveAspectRatio="none" width="100%" height="100%" overflow="visible" style="display: block;" viewBox="0 0 10 10" fill="none" xmlns="http://www.w3.org/2000/svg">
<path id="Vector" d="M8.66667 5.33333H5.33333V8.66667C5.33333 9.03333 5.03333 9.33333 4.66667 9.33333C4.3 9.33333 4 9.03333 4 8.66667V5.33333H0.666667C0.3 5.33333 0 5.03333 0 4.66667C0 4.3 0.3 4 0.666667 4H4V0.666667C4 0.3 4.3 0 4.66667 0C5.03333 0 5.33333 0.3 5.33333 0.666667V4H8.66667C9.03333 4 9.33333 4.3 9.33333 4.66667C9.33333 5.03333 9.03333 5.33333 8.66667 5.33333Z" fill="var(--fill-0, black)"/>
</svg>
