<svg preserveAspectRatio="none" width="100%" height="100%" overflow="visible" style="display: block;" viewBox="0 0 15 15" fill="none" xmlns="http://www.w3.org/2000/svg">
<g id="Icon">
<path id="Icon_2" d="M6.13672 0C7.26623 0.000191964 8.18164 0.916343 8.18164 2.0459V2.72754H11.2725C11.8247 2.72754 12.2725 3.17525 12.2725 3.72754V6.81836H12.9541C14.0838 6.81836 15 7.73458 15 8.86426C14.9997 9.99364 14.0836 10.9092 12.9541 10.9092H12.2725V14C12.2723 14.5522 11.8247 15 11.2725 15H8.18164V14.3184C8.1816 13.1888 7.26621 12.2736 6.13672 12.2734C5.00707 12.2734 4.09086 13.1887 4.09082 14.3184V15H1C0.447804 15 0.000143899 14.5522 0 14V10.9092H0.681641C1.8111 10.9092 2.72719 9.99364 2.72754 8.86426C2.72754 7.73458 1.81131 6.81836 0.681641 6.81836H0V3.72754C0 3.17525 0.447715 2.72754 1 2.72754H4.09082V2.0459C4.09082 0.916225 5.00705 0 6.13672 0Z" fill="var(--fill-0, #F1F3F4)"/>
</g>
</svg>
