<svg preserveAspectRatio="none" width="100%" height="100%" overflow="visible" style="display: block;" viewBox="0 0 11 12" fill="none" xmlns="http://www.w3.org/2000/svg">
<g id="Group 629">
<path id="Vector" d="M7.62137 2.33499L6.21297 0.926598C6.10937 0.822999 5.98617 0.738999 5.85458 0.683C5.70898 0.6186 5.55218 0.585 5.38978 0.585H1.75259C1.1058 0.585 0.585 1.1086 0.585 1.75259V9.92016C0.585 10.3598 0.828599 10.7406 1.187 10.9394" stroke="var(--stroke-0, #F1F4FF)" stroke-width="1.17" stroke-linecap="round" stroke-linejoin="round"/>
<path id="Vector_2" d="M8.76936 9.33496L8.78896 9.92016C8.78896 10.5642 8.26816 11.085 7.62136 11.085H7.01937" stroke="var(--stroke-0, #F1F4FF)" stroke-width="1.17" stroke-linecap="round" stroke-linejoin="round"/>
<g id="Group">
<path id="Vector_3" d="M9.18084 6.54904L5.88246 9.84743L4.23327 8.19824L7.53165 4.89705L8.78885 6.15705L9.18084 6.54904Z" stroke="var(--stroke-0, #F1F4FF)" stroke-width="1.17" stroke-linecap="round" stroke-linejoin="round"/>
<path id="Vector_4" d="M9.59532 6.13458L9.18092 6.54898L8.78892 6.15698L7.53173 4.89699L7.94613 4.48539C8.17852 4.25299 8.48372 4.13819 8.78892 4.14379C9.08012 4.14939 9.37132 4.26419 9.59252 4.48539H9.59532C10.0517 4.94179 10.0517 5.67819 9.59532 6.13458Z" stroke="var(--stroke-0, #F1F4FF)" stroke-width="1.17" stroke-linecap="round" stroke-linejoin="round"/>
<path id="Vector_5" d="M5.88248 9.8473L5.05648 10.6733L2.99569 11.0849L3.40729 9.02411L4.23329 8.19811L5.88248 9.8473Z" stroke="var(--stroke-0, #F1F4FF)" stroke-width="1.17" stroke-linecap="round" stroke-linejoin="round"/>
</g>
</g>
</svg>
