<svg preserveAspectRatio="none" width="100%" height="100%" overflow="visible" style="display: block;" viewBox="0 0 12 11" fill="none" xmlns="http://www.w3.org/2000/svg">
<path id="Vector" d="M10.8046 3.65167L7.57797 3.37167L6.31797 0.405C6.09131 -0.135 5.31797 -0.135 5.0913 0.405L3.8313 3.37833L0.611305 3.65167C0.0246383 3.69833 -0.215362 4.43167 0.231305 4.81833L2.67797 6.93833L1.94464 10.085C1.81131 10.6583 2.4313 11.1117 2.93797 10.805L5.70464 9.13833L8.4713 10.8117C8.97797 11.1183 9.59797 10.665 9.46464 10.0917L8.73131 6.93833L11.178 4.81833C11.6246 4.43167 11.3913 3.69833 10.8046 3.65167V3.65167ZM5.70464 7.89167L3.19797 9.405L3.86464 6.55167L1.65131 4.63167L4.57131 4.37833L5.70464 1.69167L6.84464 4.385L9.76464 4.63833L7.55131 6.55833L8.21797 9.41167L5.70464 7.89167Z" fill="var(--fill-0, black)"/>
</svg>
