<svg preserveAspectRatio="none" width="100%" height="100%" overflow="visible" style="display: block;" viewBox="0 0 15 15" fill="none" xmlns="http://www.w3.org/2000/svg">
<path id="Vector" d="M12.7792 2.20546C11.2514 0.677615 9.08615 -0.203474 6.70534 0.0402319C3.26534 0.387044 0.434606 3.18028 0.0503007 6.62028C-0.46523 11.1663 3.04975 15 7.48332 15C10.4734 15 13.0417 13.2472 14.2415 10.7258C14.5414 10.0978 14.0915 9.37603 13.3979 9.37603C13.0511 9.37603 12.723 9.56349 12.573 9.87281C11.5138 12.1505 8.97367 13.594 6.19918 12.9754C4.11831 12.5161 2.44049 10.8195 1.99994 8.73864C1.21259 5.10181 3.97771 1.8774 7.48332 1.8774C9.03928 1.8774 10.4265 2.52415 11.4388 3.54584L10.0235 4.96121C9.43296 5.55173 9.84539 6.56404 10.6796 6.56404H14.0446C14.5602 6.56404 14.9819 6.14224 14.9819 5.62671V2.2617C14.9819 1.42748 13.9696 1.00568 13.3791 1.5962L12.7792 2.20546V2.20546Z" fill="var(--fill-0, #6B6C6E)"/>
</svg>
