<svg preserveAspectRatio="none" width="100%" height="100%" overflow="visible" style="display: block;" viewBox="0 0 4 15" fill="none" xmlns="http://www.w3.org/2000/svg">
<path id="Vector" d="M1.875 3.75C2.90625 3.75 3.75 2.90625 3.75 1.875C3.75 0.84375 2.90625 0 1.875 0C0.84375 0 0 0.84375 0 1.875C0 2.90625 0.84375 3.75 1.875 3.75ZM1.875 5.625C0.84375 5.625 0 6.46875 0 7.5C0 8.53125 0.84375 9.375 1.875 9.375C2.90625 9.375 3.75 8.53125 3.75 7.5C3.75 6.46875 2.90625 5.625 1.875 5.625ZM1.875 11.25C0.84375 11.25 0 12.0937 0 13.125C0 14.1563 0.84375 15 1.875 15C2.90625 15 3.75 14.1563 3.75 13.125C3.75 12.0937 2.90625 11.25 1.875 11.25Z" fill="var(--fill-0, #6B6C6E)"/>
</svg>
