<svg preserveAspectRatio="none" width="100%" height="100%" overflow="visible" style="display: block;" viewBox="0 0 16 16" fill="none" xmlns="http://www.w3.org/2000/svg">
<g id="Group 13902">
<path id="Vector" d="M8 16C12.4183 16 16 12.4183 16 8C16 3.58172 12.4183 0 8 0C3.58172 0 0 3.58172 0 8C0 12.4183 3.58172 16 8 16Z" fill="var(--fill-0, #3D59A5)"/>
<path id="Vector_2" d="M2.76804 5.7123C2.32139 5.7123 1.88478 5.84474 1.51341 6.09288C1.14204 6.34103 0.85259 6.69372 0.681667 7.10636C0.510744 7.51901 0.466023 7.97307 0.553159 8.41113C0.640294 8.84919 0.855374 9.25158 1.1712 9.5674C1.48702 9.88323 1.88941 10.0983 2.32747 10.1854C2.76553 10.2726 3.21959 10.2279 3.63224 10.0569C4.04488 9.88601 4.39758 9.59656 4.64572 9.22519C4.89386 8.85382 5.0263 8.41721 5.0263 7.97057C5.02621 7.37166 4.78826 6.79732 4.36477 6.37383C3.94128 5.95034 3.36694 5.71239 2.76804 5.7123ZM2.76804 9.39551C2.48621 9.39551 2.21071 9.31194 1.97638 9.15536C1.74205 8.99879 1.55941 8.77624 1.45156 8.51587C1.34371 8.25549 1.31549 7.96899 1.37047 7.69257C1.42545 7.41616 1.56117 7.16226 1.76045 6.96298C1.95973 6.7637 2.21363 6.62799 2.49004 6.573C2.76645 6.51802 3.05296 6.54624 3.31334 6.65409C3.57371 6.76194 3.79626 6.94458 3.95283 7.17891C4.10941 7.41324 4.19298 7.68874 4.19298 7.97057C4.1927 8.3483 4.04245 8.71048 3.77525 8.97748C3.50806 9.24448 3.14577 9.39447 2.76804 9.39447V9.39551Z" fill="var(--fill-0, white)"/>
<path id="Vector_3" d="M11.8687 15.0037V10.2253H13.2274C13.6748 10.2256 14.1123 10.0932 14.4844 9.84482C14.8565 9.59645 15.1466 9.24329 15.318 8.83002C15.4894 8.41674 15.5344 7.96192 15.4472 7.52309C15.3601 7.08425 15.1448 6.68112 14.8285 6.36469C14.5122 6.04825 14.1091 5.83273 13.6704 5.74539C13.2316 5.65805 12.7767 5.7028 12.3634 5.874C11.95 6.0452 11.5967 6.33515 11.3482 6.70716C11.0996 7.07918 10.967 7.51655 10.9671 7.96395V15.4306C11.2774 15.3099 11.5787 15.1672 11.8687 15.0037ZM13.3058 8.57881C13.183 8.57887 13.063 8.54253 12.9608 8.47436C12.8587 8.40619 12.7791 8.30927 12.7321 8.19585C12.685 8.08243 12.6727 7.95761 12.6966 7.83717C12.7205 7.71673 12.7796 7.60609 12.8664 7.51925C12.9532 7.4324 13.0638 7.37324 13.1842 7.34926C13.3046 7.32528 13.4295 7.33756 13.5429 7.38453C13.6564 7.4315 13.7533 7.51106 13.8216 7.61315C13.8898 7.71524 13.9262 7.83527 13.9262 7.95806C13.9262 8.12263 13.8608 8.28047 13.7445 8.39687C13.6282 8.51327 13.4704 8.57871 13.3058 8.57881Z" fill="var(--fill-0, white)"/>
<path id="Vector_4" d="M5.74581 0.321603V7.97412C5.74602 8.42146 5.87889 8.85868 6.12763 9.23049C6.37636 9.60229 6.72978 9.89198 7.14317 10.0629C7.55657 10.2338 8.01136 10.2783 8.45004 10.1907C8.88871 10.1031 9.29155 9.88735 9.6076 9.57077C9.92364 9.2542 10.1387 8.85099 10.2256 8.41217C10.3124 7.97335 10.2672 7.51863 10.0956 7.10552C9.92394 6.69242 9.63366 6.33949 9.26144 6.09138C8.88921 5.84328 8.45176 5.71114 8.00443 5.71169H6.64746V0.114572C6.34275 0.163996 6.04156 0.233151 5.74581 0.321603ZM8.05506 9.41155C7.67392 9.41127 7.30846 9.25974 7.03895 8.99023C6.76944 8.72072 6.61791 8.35527 6.61763 7.97412V6.5367H8.05506C8.43629 6.5367 8.8019 6.68814 9.07147 6.95771C9.34104 7.22728 9.49249 7.59289 9.49249 7.97412C9.49249 8.35535 9.34104 8.72097 9.07147 8.99054C8.8019 9.26011 8.43629 9.41155 8.05506 9.41155Z" fill="var(--fill-0, white)"/>
<path id="Vector_5" d="M13.3057 6.52257C12.9245 6.52284 12.559 6.67442 12.2895 6.94401C12.02 7.21359 11.8685 7.57913 11.8683 7.96034V9.39777H13.3057C13.6831 9.3919 14.0431 9.23786 14.3079 8.9689C14.5727 8.69994 14.7212 8.33762 14.7212 7.96017C14.7212 7.58271 14.5727 7.2204 14.3079 6.95143C14.0431 6.68247 13.6831 6.52843 13.3057 6.52257ZM13.3057 8.58109C13.1829 8.58115 13.0629 8.54481 12.9608 8.47664C12.8586 8.40847 12.779 8.31155 12.732 8.19813C12.685 8.08471 12.6726 7.95989 12.6965 7.83945C12.7204 7.71901 12.7795 7.60838 12.8663 7.52153C12.9531 7.43468 13.0637 7.37553 13.1842 7.35155C13.3046 7.32757 13.4294 7.33984 13.5429 7.38681C13.6563 7.43378 13.7533 7.51335 13.8215 7.61543C13.8897 7.71752 13.9261 7.83755 13.9261 7.96034C13.9262 8.04184 13.9102 8.12255 13.879 8.19786C13.8478 8.27317 13.8022 8.34161 13.7445 8.39925C13.6869 8.4569 13.6185 8.50263 13.5432 8.53383C13.4679 8.56503 13.3872 8.58109 13.3057 8.58109Z" fill="var(--fill-0, #FFE907)"/>
</g>
</svg>
