<svg preserveAspectRatio="none" width="100%" height="100%" overflow="visible" style="display: block;" viewBox="0 0 8 10" fill="none" xmlns="http://www.w3.org/2000/svg">
<path id="Union" d="M3.91504 0.0136719C5.29035 0.153272 6.36328 1.3154 6.36328 2.72754V3.63672L6.3623 3.64062C6.87261 3.68594 7.27246 4.11463 7.27246 4.63672V9C7.27245 9.55227 6.82474 10 6.27246 10H1C0.447724 10 1.33015e-05 9.55227 0 9V4.63672C0 4.11505 0.399465 3.68652 0.90918 3.64062V2.72754C0.90918 1.22131 2.13049 0 3.63672 0L3.91504 0.0136719ZM3.63672 1C2.74236 1 2.00637 1.67974 1.91797 2.55078L1.90918 2.72754V3.63672H5.36328V2.72754C5.36328 1.77374 4.59047 1.00023 3.63672 1Z" fill="var(--fill-0, black)"/>
</svg>
