<svg preserveAspectRatio="none" width="100%" height="100%" overflow="visible" style="display: block;" viewBox="0 0 12 12" fill="none" xmlns="http://www.w3.org/2000/svg">
<g id="Group 603">
<g id="Group">
<path id="Vector" d="M7.00541 0.585H4.66738C4.02407 0.585 3.50257 1.10651 3.50257 1.74981V4.08785C3.50257 4.73115 4.02407 5.25266 4.66738 5.25266H7.00541C7.64872 5.25266 8.17023 4.73115 8.17023 4.08785V1.74981C8.17023 1.10651 7.64872 0.585 7.00541 0.585Z" stroke="var(--stroke-0, #252525)" stroke-width="1.17" stroke-miterlimit="10" stroke-linecap="round"/>
<path id="Vector_2" d="M5.83506 0.585V2.58423" stroke="var(--stroke-0, #252525)" stroke-width="1.17" stroke-miterlimit="10"/>
</g>
<g id="Group_2">
<path id="Vector_3" d="M4.67013 5.25249H2.3321C1.68879 5.25249 1.16728 5.774 1.16728 6.41731V8.75534C1.16728 9.39865 1.68879 9.92015 2.3321 9.92015H4.67013C5.31344 9.92015 5.83494 9.39865 5.83494 8.75534V6.41731C5.83494 5.774 5.31344 5.25249 4.67013 5.25249Z" stroke="var(--stroke-0, #252525)" stroke-width="1.17" stroke-miterlimit="10" stroke-linecap="round"/>
<path id="Vector_4" d="M3.50266 5.25246V7.25169" stroke="var(--stroke-0, #252525)" stroke-width="1.17" stroke-miterlimit="10"/>
</g>
<g id="Group_3">
<path id="Vector_5" d="M9.33786 5.25249H6.99983C6.35652 5.25249 5.83501 5.774 5.83501 6.41731V8.75534C5.83501 9.39865 6.35652 9.92015 6.99983 9.92015H9.33786C9.98117 9.92015 10.5027 9.39865 10.5027 8.75534V6.41731C10.5027 5.774 9.98117 5.25249 9.33786 5.25249Z" stroke="var(--stroke-0, #252525)" stroke-width="1.17" stroke-miterlimit="10" stroke-linecap="round"/>
<path id="Vector_6" d="M8.16747 5.25246V7.25169" stroke="var(--stroke-0, #252525)" stroke-width="1.17" stroke-miterlimit="10"/>
</g>
<path id="Vector_7" d="M0.585 9.91739H11.0851" stroke="var(--stroke-0, #252525)" stroke-width="1.17" stroke-miterlimit="10" stroke-linecap="round"/>
<path id="Vector_8" d="M1.75264 11.085V9.91739" stroke="var(--stroke-0, #252525)" stroke-width="1.17" stroke-miterlimit="10" stroke-linecap="round"/>
<path id="Vector_9" d="M9.91739 11.085V9.91739" stroke="var(--stroke-0, #252525)" stroke-width="1.17" stroke-miterlimit="10" stroke-linecap="round"/>
</g>
</svg>
