<svg preserveAspectRatio="none" width="100%" height="100%" overflow="visible" style="display: block;" viewBox="0 0 21 21" fill="none" xmlns="http://www.w3.org/2000/svg">
<g id="Group 13902">
<path id="Vector" d="M10.5 21C16.299 21 21 16.299 21 10.5C21 4.70101 16.299 0 10.5 0C4.70101 0 0 4.70101 0 10.5C0 16.299 4.70101 21 10.5 21Z" fill="var(--fill-0, #3D59A5)"/>
<path id="Vector_2" d="M3.63308 7.49738C3.04686 7.49738 2.47381 7.67121 1.98639 7.9969C1.49896 8.32258 1.11906 8.78549 0.894726 9.32709C0.67039 9.86868 0.611693 10.4646 0.726059 11.0396C0.840425 11.6146 1.12272 12.1427 1.53724 12.5572C1.95176 12.9717 2.47989 13.254 3.05484 13.3684C3.6298 13.4827 4.22575 13.424 4.76735 13.1997C5.30895 12.9754 5.77186 12.5955 6.09754 12.1081C6.42323 11.6206 6.59706 11.0476 6.59706 10.4614C6.59694 9.67529 6.28463 8.92146 5.7288 8.36564C5.17297 7.80981 4.41914 7.4975 3.63308 7.49738ZM3.63308 12.3316C3.26319 12.3316 2.9016 12.2219 2.59404 12.0164C2.28648 11.8109 2.04676 11.5188 1.90521 11.1771C1.76366 10.8353 1.72662 10.4593 1.79878 10.0965C1.87095 9.7337 2.04907 9.40045 2.31063 9.1389C2.57218 8.87734 2.90543 8.69922 3.26822 8.62705C3.63101 8.55489 4.00705 8.59192 4.34879 8.73348C4.69053 8.87503 4.98263 9.11475 5.18813 9.4223C5.39363 9.72986 5.50332 10.0915 5.50332 10.4614C5.50296 10.9571 5.30576 11.4325 4.95506 11.7829C4.60436 12.1334 4.12887 12.3302 3.63308 12.3302V12.3316Z" fill="var(--fill-0, white)"/>
<path id="Vector_3" d="M15.5777 19.6923V13.4207H17.361C17.9482 13.4211 18.5224 13.2473 19.0108 12.9213C19.4992 12.5953 19.88 12.1318 20.1049 11.5894C20.3299 11.047 20.3889 10.45 20.2745 9.87404C20.1602 9.29807 19.8775 8.76896 19.4624 8.35364C19.0473 7.93832 18.5183 7.65545 17.9424 7.54081C17.3665 7.42617 16.7695 7.48492 16.227 7.70961C15.6844 7.93431 15.2207 8.31486 14.8945 8.80314C14.5683 9.29141 14.3942 9.86546 14.3943 10.4527V20.2526C14.8016 20.0942 15.1971 19.907 15.5777 19.6923ZM17.4639 11.2597C17.3027 11.2598 17.1452 11.2121 17.0111 11.1226C16.8771 11.0331 16.7726 10.9059 16.7109 10.757C16.6491 10.6082 16.6329 10.4443 16.6643 10.2863C16.6957 10.1282 16.7733 9.98299 16.8872 9.869C17.0011 9.75501 17.1463 9.67737 17.3043 9.6459C17.4624 9.61442 17.6262 9.63053 17.7751 9.69218C17.924 9.75383 18.0513 9.85826 18.1408 9.99225C18.2304 10.1262 18.2782 10.2838 18.2782 10.4449C18.2782 10.6609 18.1924 10.8681 18.0397 11.0209C17.887 11.1737 17.6799 11.2595 17.4639 11.2597Z" fill="var(--fill-0, white)"/>
<path id="Vector_4" d="M7.54151 0.422119V10.4661C7.54178 11.0532 7.71617 11.627 8.04264 12.115C8.3691 12.603 8.83296 12.9832 9.37554 13.2076C9.91812 13.4319 10.515 13.4903 11.0908 13.3753C11.6666 13.2603 12.1953 12.9772 12.6101 12.5617C13.0249 12.1461 13.3072 11.6169 13.4212 11.041C13.5352 10.465 13.4758 9.86821 13.2505 9.32601C13.0253 8.78381 12.6443 8.32059 12.1558 7.99496C11.6672 7.66932 11.0931 7.49589 10.5059 7.49661H8.72491V0.150391C8.32498 0.215259 7.92968 0.306026 7.54151 0.422119ZM10.5724 12.3527C10.0721 12.3523 9.59248 12.1534 9.23875 11.7997C8.88502 11.446 8.68613 10.9663 8.68577 10.4661V8.57943H10.5724C11.0728 8.57943 11.5526 8.7782 11.9064 9.13201C12.2602 9.48582 12.459 9.96569 12.459 10.4661C12.459 10.9664 12.2602 11.4463 11.9064 11.8001C11.5526 12.1539 11.0728 12.3527 10.5724 12.3527Z" fill="var(--fill-0, white)"/>
<path id="Vector_5" d="M17.4639 8.56089C16.9636 8.56125 16.4838 8.7602 16.1301 9.11403C15.7763 9.46786 15.5775 9.94763 15.5773 10.448V12.3346H17.4639C17.9592 12.3269 18.4317 12.1247 18.7793 11.7717C19.1269 11.4187 19.3217 10.9431 19.3217 10.4477C19.3217 9.95233 19.1269 9.47679 18.7793 9.12377C18.4317 8.77076 17.9592 8.56858 17.4639 8.56089ZM17.4639 11.2627C17.3027 11.2628 17.1452 11.2151 17.0111 11.1256C16.8771 11.0361 16.7726 10.9089 16.7109 10.7601C16.6491 10.6112 16.6329 10.4474 16.6643 10.2893C16.6957 10.1312 16.7733 9.98601 16.8872 9.87203C17.0011 9.75804 17.1463 9.6804 17.3043 9.64892C17.4624 9.61745 17.6262 9.63356 17.7751 9.69521C17.924 9.75686 18.0513 9.86129 18.1408 9.99528C18.2304 10.1293 18.2782 10.2868 18.2782 10.448C18.2782 10.5549 18.2572 10.6609 18.2163 10.7597C18.1754 10.8586 18.1155 10.9484 18.0398 11.024C17.9642 11.0997 17.8744 11.1597 17.7756 11.2007C17.6768 11.2416 17.5709 11.2627 17.4639 11.2627Z" fill="var(--fill-0, #FFE907)"/>
</g>
</svg>
