<svg preserveAspectRatio="none" width="100%" height="100%" overflow="visible" style="display: block;" viewBox="0 0 20 20" fill="none" xmlns="http://www.w3.org/2000/svg">
<g id="Group 13900">
<path id="Vector" d="M10 19C14.9706 19 19 14.9706 19 10C19 5.02944 14.9706 1 10 1C5.02944 1 1 5.02944 1 10C1 14.9706 5.02944 19 10 19Z" stroke="var(--stroke-0, #252525)" stroke-width="2" stroke-linecap="round" stroke-linejoin="round"/>
<path id="Vector_2" d="M13.9984 13.9984H10.9984L9.00156 12.0016L9.99996 7.99836L13 6.99996H16L18.0016 6.00156" stroke="var(--stroke-0, #252525)" stroke-width="2" stroke-linecap="round" stroke-linejoin="round"/>
<path id="Vector_3" d="M10.9984 13.9984L7.9984 13L7 10L4 7L4.9984 10.9984" stroke="var(--stroke-0, #252525)" stroke-width="2" stroke-linecap="round" stroke-linejoin="round"/>
<path id="Vector_4" d="M13.9984 11.9969L12.9952 13.9985L15.9952 14.9969L16.84 15.8417" stroke="var(--stroke-0, #252525)" stroke-width="2" stroke-linecap="round" stroke-linejoin="round"/>
<path id="Vector_5" d="M4.00004 6.99996L1.99844 6.00156" stroke="var(--stroke-0, #252525)" stroke-width="2" stroke-linecap="round" stroke-linejoin="round"/>
<path id="Vector_6" d="M16 9.0016L15.0016 7" stroke="var(--stroke-0, #252525)" stroke-width="2" stroke-linecap="round" stroke-linejoin="round"/>
</g>
</svg>
