<svg preserveAspectRatio="none" width="100%" height="100%" overflow="visible" style="display: block;" viewBox="0 0 21 25" fill="none" xmlns="http://www.w3.org/2000/svg">
<g id="Vector 19">
<path d="M4.5 0.5H10.8908C11.9234 0.5 12.916 0.899334 13.6609 1.61445L20.5 8.18V20.5C20.5 22.7091 18.7091 24.5 16.5 24.5H4.5C2.29086 24.5 0.5 22.7091 0.5 20.5V4.5C0.5 2.29086 2.29086 0.5 4.5 0.5Z" fill="var(--fill-0, white)"/>
<path d="M20.5 8.18V20.5C20.5 22.7091 18.7091 24.5 16.5 24.5H4.5C2.29086 24.5 0.5 22.7091 0.5 20.5V4.5C0.5 2.29086 2.29086 0.5 4.5 0.5H10.8908C11.9234 0.5 12.916 0.899334 13.6609 1.61445L20.5 8.18ZM20.5 8.18H16.5C14.2909 8.18 12.5 6.38914 12.5 4.18V0.98" stroke="var(--stroke-0, #D1D4D6)" stroke-linecap="round" stroke-linejoin="round"/>
</g>
</svg>
