<svg preserveAspectRatio="none" width="100%" height="100%" overflow="visible" style="display: block;" viewBox="0 0 17 17" fill="none" xmlns="http://www.w3.org/2000/svg">
<path id="Vector" d="M14.4237 7.85837H13.3552V3.14475H8.64163V2.07633C8.64163 1.04719 7.90317 0.112324 6.88188 0.0101953C5.70348 -0.107645 4.71362 0.81151 4.71362 1.96635V3.14475H0.00785602V7.70125H1.09984C2.12898 7.70125 3.06385 8.39258 3.26025 9.39815C3.5195 10.7494 2.49036 11.9435 1.1784 11.9435H0V16.5H4.5565V15.4002C4.5565 14.371 5.24783 13.4361 6.2534 13.2397C7.60464 12.9805 8.79875 14.0096 8.79875 15.3216V16.5H13.3552V11.7864H14.5337C15.6885 11.7864 16.6076 10.7965 16.4898 9.61812C16.3877 8.59683 15.445 7.85837 14.4237 7.85837V7.85837Z" fill="var(--fill-0, #6B6C6E)"/>
</svg>
